<svg id="Capa_1" data-name="Capa 1" xmlns="http://www.w3.org/2000/svg" viewBox="0 0 722.94 716.01"><defs><style>.cls-1{fill:#ff9c00;fill-rule:evenodd;}</style></defs><path d="M41.58,628.93,1.13,507.09H12.26l29.32,93.64,31.24-98.29,32.45,97.49,28.2-92.84h11.05L105.27,628.93,72.82,529.36Z"/><path d="M171.26,525.59a7.2,7.2,0,0,1,2.24-5.32,7.41,7.41,0,0,1,5.37-2.21,7.55,7.55,0,0,1,5.41,2.21,7.13,7.13,0,0,1,2.28,5.32,7.21,7.21,0,0,1-2.2,5.37,7.53,7.53,0,0,1-5.49,2.16,7.43,7.43,0,0,1-5.41-2.16A7.21,7.21,0,0,1,171.26,525.59Zm2.48,98.78V553.31h10.18v71.06Z"/><path d="M227.24,624.37V500.2h9.85v84.59l35.41-31.48h13.62l-38.05,31.88,40.85,39.18H275.3L237.09,587.6v36.77Z"/><path d="M316.94,525.59a7.2,7.2,0,0,1,2.24-5.32,7.41,7.41,0,0,1,5.37-2.21,7.53,7.53,0,0,1,5.41,2.21,7.13,7.13,0,0,1,2.28,5.32A7.21,7.21,0,0,1,330,531a7.53,7.53,0,0,1-5.49,2.16,7.43,7.43,0,0,1-5.41-2.16A7.21,7.21,0,0,1,316.94,525.59Zm2.48,98.78V553.31H329.6v71.06Z"/><path d="M374.36,624.37V507.09H385v47.58h63.84V507.09h10.66V624.37H448.86V563.81H385v60.56Z"/><path d="M501.8,525.59a7.16,7.16,0,0,1,2.24-5.32,7.38,7.38,0,0,1,5.37-2.21,7.51,7.51,0,0,1,5.4,2.21,7.14,7.14,0,0,1,2.29,5.32,7.22,7.22,0,0,1-2.21,5.37,7.53,7.53,0,0,1-5.48,2.16A7.43,7.43,0,0,1,504,531,7.21,7.21,0,0,1,501.8,525.59Zm2.48,98.78V553.31h10.17v71.06Z"/><path d="M620.26,553.31V612q0,14-.77,21.39t-2.52,11a24.44,24.44,0,0,1-11.29,11.82q-7.62,3.88-19.23,3.88-14.18,0-22.07-5.48T554.81,638h12.34a14.46,14.46,0,0,0,6.28,9.94q5.1,3.36,13.82,3.36A28.89,28.89,0,0,0,599.07,649a17.52,17.52,0,0,0,7.89-6.41,17.92,17.92,0,0,0,2.52-6.13,55,55,0,0,0,.76-10.77V611.23a26.14,26.14,0,0,1-10,11.94,28.18,28.18,0,0,1-15.5,4.32q-15,0-23.91-10.41t-8.94-28q0-17.39,9.14-27.92t24.19-10.53A27.8,27.8,0,0,1,600.43,555a24.55,24.55,0,0,1,9.81,11.58v-13.3Zm-34,6.41q-11.06,0-17.42,7.89t-6.37,21.67q0,13.69,6,21.35t16.78,7.65q11.37,0,18.22-8.09t6.85-21.79q0-13.46-6.41-21.07T586.29,559.72Z"/><path d="M662.94,624.37V500.2h9.37v64.09a28.89,28.89,0,0,1,10.61-10.22,29.93,29.93,0,0,1,14.46-3.4q12.11,0,18.83,6.73t6.73,18.74v48.23h-10V580.55q0-10.65-4.44-15.82t-13.74-5.17q-11.29,0-16.62,6.69t-5.33,21v37.09Z"/><path d="M9,715.05v-30H0v-2.8H21.06v2.8H12v30Z"/><path d="M30.6,715.05v-32.8h3v13.31H51.44V682.25h3v32.8h-3V698.11H33.58v16.94Z"/><path d="M67.16,715.05v-32.8H83.4v2.8H70.14v10.26H83.4v2.8H70.14v14.14H83.4v2.8Z"/><path d="M139.45,688.25a17.55,17.55,0,0,0-5-3.11,14.52,14.52,0,0,0-5.37-1,13.86,13.86,0,0,0-10.34,4,14.33,14.33,0,0,0-4,10.51,16.77,16.77,0,0,0,1,5.85,13,13,0,0,0,3,4.61,13.34,13.34,0,0,0,4.52,3,14.29,14.29,0,0,0,5.45,1,16.09,16.09,0,0,0,5.52-1,18.17,18.17,0,0,0,5.08-2.84v3.49a21.14,21.14,0,0,1-5.12,2.28,18.83,18.83,0,0,1-5.34.79,18.43,18.43,0,0,1-6.81-1.27,16.34,16.34,0,0,1-5.58-3.59,15.75,15.75,0,0,1-3.63-5.51,18.7,18.7,0,0,1-1.23-6.88,18.5,18.5,0,0,1,1.26-6.86,15.84,15.84,0,0,1,3.64-5.49,16.51,16.51,0,0,1,5.57-3.53,18.23,18.23,0,0,1,6.78-1.28,19,19,0,0,1,5.81.86A15.69,15.69,0,0,1,139.5,685Z"/><path d="M146,715.05,160.42,681l13.8,34.1H171l-4.19-11.11h-13.4L149,715.05Zm8.38-13.67h11.43l-5.6-14.27Z"/><path d="M182.48,715.05V680.86l23.24,27.45V682.25h2.77V716l-23.21-27.49v26.53Z"/><path d="M221.26,715.05V680.86l23.23,27.45V682.25h2.78V716l-23.21-27.49v26.53Z"/><path d="M255.56,715.05,270,681l13.8,34.1h-3.24l-4.2-11.11H262.93l-4.35,11.11Zm8.38-13.67h11.42l-5.6-14.27Z"/><path d="M292,715.05v-32.8h5.69a28.49,28.49,0,0,1,5.4.36,7.11,7.11,0,0,1,2.82,1.23,8.11,8.11,0,0,1,2.49,3,9.13,9.13,0,0,1,.85,3.94,7.25,7.25,0,0,1-1.37,4.45,6.37,6.37,0,0,1-3.76,2.42,7.86,7.86,0,0,1,5,2.54,7.68,7.68,0,0,1,1.79,5.22,11.31,11.31,0,0,1-.69,4.09,8.27,8.27,0,0,1-2.11,3.1,8.13,8.13,0,0,1-3.45,1.89,29.38,29.38,0,0,1-6.88.55Zm3-18.22h3.72q4.09,0,5.79-1.34c1.12-.9,1.69-2.39,1.69-4.48q0-3.39-1.65-4.77t-5.83-1.39H295Zm0,15.64h3.81a24.66,24.66,0,0,0,4.48-.27,5.14,5.14,0,0,0,2.08-.92,5.47,5.47,0,0,0,1.68-2.23,7.38,7.38,0,0,0,.63-3,8,8,0,0,0-.7-3.46,4.87,4.87,0,0,0-1.92-2.23,6.44,6.44,0,0,0-2-.71,22.1,22.1,0,0,0-3.59-.21H295Z"/><path d="M322,715.05v-32.8h3v32.8Z"/><path d="M335.24,709.54l2.55-1.37a7,7,0,0,0,2.48,3.75,6.78,6.78,0,0,0,4.22,1.34,6.35,6.35,0,0,0,4.86-1.84,7.07,7.07,0,0,0,1.75-5.09,6.36,6.36,0,0,0-1.18-3.94c-.78-1-2.47-2.26-5.05-3.63q-5-2.62-6.59-4.62a7.28,7.28,0,0,1-1.63-4.79,7.42,7.42,0,0,1,2.36-5.69,8.68,8.68,0,0,1,6.13-2.2,8.47,8.47,0,0,1,4.29,1,7.73,7.73,0,0,1,3,3.12L350.09,687a5,5,0,0,0-2-2.15,6.24,6.24,0,0,0-3.1-.74,4.93,4.93,0,0,0-5.29,5.26q0,3.47,5.69,6.44c.69.35,1.21.63,1.57.82,2.8,1.54,4.66,3,5.6,4.36a9.21,9.21,0,0,1,1.42,5.32,8.91,8.91,0,0,1-9.59,9.59,9.39,9.39,0,0,1-5.53-1.6A10.4,10.4,0,0,1,335.24,709.54Z"/><path d="M383,715.05v-32.8h3v32.8Z"/><path d="M398.74,715.05V680.86L422,708.31V682.25h2.78V716l-23.21-27.49v26.53Z"/><path d="M443.34,715.05v-30h-9v-2.8h21.05v2.8h-9.05v30Z"/><path d="M464.91,715.05v-32.8h16.25v2.8H467.89v10.26h13.27v2.8H467.89v14.14h13.27v2.8Z"/><path d="M493.05,715.05v-32.8h3v30h11.25v2.8Z"/><path d="M516.59,715.05v-32.8h3v30h11.25v2.8Z"/><path d="M540.14,715.05v-32.8h3v32.8Z"/><path d="M582.77,690.49a13.6,13.6,0,0,0-4.91-4.68,13.46,13.46,0,0,0-6.56-1.59,12.93,12.93,0,0,0-9.93,4.12,16.38,16.38,0,0,0-2.81,16.22,13.77,13.77,0,0,0,3,4.62,13,13,0,0,0,4.41,3,14.13,14.13,0,0,0,5.36,1,12.61,12.61,0,0,0,9-3.25,11.4,11.4,0,0,0,3.55-8.49H572.51v-2.58h14.58v.36q0,7.85-4.28,12.27T571,715.92A16.07,16.07,0,0,1,559,711.17c-3.08-3.16-4.61-7.32-4.61-12.45A19.28,19.28,0,0,1,555.5,692a16,16,0,0,1,3.36-5.48,15.64,15.64,0,0,1,5.37-3.79,17.15,17.15,0,0,1,6.66-1.25,18.78,18.78,0,0,1,8.56,1.8,12.6,12.6,0,0,1,5.49,5.3Z"/><path d="M598,715.05v-32.8H614.2v2.8H600.93v10.26H614.2v2.8H600.93v14.14H614.2v2.8Z"/><path d="M626.09,715.05V680.86l23.23,27.45V682.25h2.78V716l-23.21-27.49v26.53Z"/><path d="M691.22,688.25a17.69,17.69,0,0,0-5-3.11,14.57,14.57,0,0,0-5.38-1,13.88,13.88,0,0,0-10.34,4,14.33,14.33,0,0,0-4,10.51,16.54,16.54,0,0,0,1,5.85,13,13,0,0,0,3,4.61,13.3,13.3,0,0,0,4.51,3,14.38,14.38,0,0,0,5.46,1,16,16,0,0,0,5.51-1,18.22,18.22,0,0,0,5.09-2.84v3.49a21.31,21.31,0,0,1-5.12,2.28,18.84,18.84,0,0,1-5.35.79,18.5,18.5,0,0,1-6.81-1.27,16.53,16.53,0,0,1-5.58-3.59,16,16,0,0,1-3.63-5.51,18.7,18.7,0,0,1-1.23-6.88,18.31,18.31,0,0,1,1.27-6.86,15.56,15.56,0,0,1,3.64-5.49,16.42,16.42,0,0,1,5.57-3.53,18.22,18.22,0,0,1,6.77-1.28,19,19,0,0,1,5.82.86,15.64,15.64,0,0,1,4.87,2.59Z"/><path d="M702.26,715.05v-32.8H718.5v2.8H705.24v10.26H718.5v2.8H705.24v14.14H718.5v2.8Z"/><path class="cls-1" d="M319.48,310.66c-20.82,40.71-88,50.3-112,40,10.76-26,59.18-59,105-43.51-21.52-.46-51.46.24-84,34.62,10.3,4.68,59,2.34,91-31.11Zm7.49-12.4c-104.34,2.34-169.6-106.43-171.24-158.83C207.19,142.7,316,191.36,327.2,282.35c-11-19.88-45.61-102.23-149.48-124.21-2.81,20.11,51.7,128.19,149.25,140.12Zm66.67,0C498,300.6,563,191.83,564.88,139.43c-51.47,3.27-160.25,51.93-171.71,142.92,11-19.88,45.85-102.23,149.48-124.21,2.81,20.11-51.69,128.19-149,140.12Zm-50.06-1.17c-65.27,94.75-14.27,153.23,13.1,152.76,42.34-.7,93.33-51.47,7.48-174.52-8.65-12.16-16.37-23.85-21.28-36-49.13-116.49,6.78-204.45,18-205.62,11.23-.24,70.18,105.74,12.16,220.83C431.53,201,423.35,66.43,360.42,0c-67.84,71.82-67.14,183.87-14,276.74,17.31,30.41,47,66.44,47,101.29,0,94.75-111.59,48.66-49.83-80.94Zm51.7,13.57c20.82,40.71,88,50.3,112.05,40-10.76-26-59.19-59-105-43.51,21.51-.46,51.46.24,84,34.62-10.3,4.68-58.95,2.34-91-31.11Z"/></svg>