<svg id="Capa_1" data-name="Capa 1" xmlns="http://www.w3.org/2000/svg" viewBox="0 0 722.94 215.81"><path d="M41.58,128.73,1.13,6.89H12.26l29.32,93.64L72.82,2.24l32.45,97.49,28.2-92.84h11.05L105.27,128.73,72.82,29.16Z"/><path d="M171.26,25.39a7.2,7.2,0,0,1,2.24-5.32,7.41,7.41,0,0,1,5.37-2.21,7.55,7.55,0,0,1,5.41,2.21,7.13,7.13,0,0,1,2.28,5.32,7.21,7.21,0,0,1-2.2,5.37,7.53,7.53,0,0,1-5.49,2.16,7.43,7.43,0,0,1-5.41-2.16A7.21,7.21,0,0,1,171.26,25.39Zm2.48,98.78V53.11h10.18v71.06Z"/><path d="M227.24,124.17V0h9.85V84.59L272.5,53.11h13.62L248.07,85l40.85,39.18H275.3L237.09,87.4v36.77Z"/><path d="M316.94,25.39a7.2,7.2,0,0,1,2.24-5.32,7.41,7.41,0,0,1,5.37-2.21A7.53,7.53,0,0,1,330,20.07a7.13,7.13,0,0,1,2.28,5.32,7.21,7.21,0,0,1-2.2,5.37,7.53,7.53,0,0,1-5.49,2.16,7.43,7.43,0,0,1-5.41-2.16A7.21,7.21,0,0,1,316.94,25.39Zm2.48,98.78V53.11H329.6v71.06Z"/><path d="M374.36,124.17V6.89H385V54.47h63.84V6.89h10.66V124.17H448.86V63.61H385v60.56Z"/><path d="M501.8,25.39A7.16,7.16,0,0,1,504,20.07a7.38,7.38,0,0,1,5.37-2.21,7.51,7.51,0,0,1,5.4,2.21,7.14,7.14,0,0,1,2.29,5.32,7.22,7.22,0,0,1-2.21,5.37,7.53,7.53,0,0,1-5.48,2.16A7.43,7.43,0,0,1,504,30.76,7.21,7.21,0,0,1,501.8,25.39Zm2.48,98.78V53.11h10.17v71.06Z"/><path d="M620.26,53.11v58.72q0,14-.77,21.39t-2.52,11A24.44,24.44,0,0,1,605.68,156q-7.62,3.88-19.23,3.88-14.18,0-22.07-5.48t-9.57-16.63h12.34a14.46,14.46,0,0,0,6.28,9.94q5.1,3.36,13.82,3.36a28.89,28.89,0,0,0,11.82-2.32,17.52,17.52,0,0,0,7.89-6.41,17.92,17.92,0,0,0,2.52-6.13,55,55,0,0,0,.76-10.77V111a26.14,26.14,0,0,1-10,11.94,28.18,28.18,0,0,1-15.5,4.32q-15,0-23.91-10.41t-8.94-28q0-17.39,9.14-27.92t24.19-10.53a27.8,27.8,0,0,1,15.26,4.36,24.55,24.55,0,0,1,9.81,11.58V53.11Zm-34,6.41q-11.06,0-17.42,7.89T562.5,89.08q0,13.69,6,21.35t16.78,7.65q11.37,0,18.22-8.09T610.4,88.2q0-13.45-6.41-21.07T586.29,59.52Z"/><path d="M662.94,124.17V0h9.37V64.09a28.89,28.89,0,0,1,10.61-10.22,29.93,29.93,0,0,1,14.46-3.4q12.11,0,18.83,6.73t6.73,18.74v48.23h-10V80.35q0-10.65-4.44-15.82t-13.74-5.17q-11.29,0-16.62,6.69t-5.33,21v37.09Z"/><path d="M9,214.85v-30H0v-2.8H21.06v2.8H12v30Z"/><path d="M30.6,214.85v-32.8h3v13.31H51.44V182.05h3v32.8h-3V197.91H33.58v16.94Z"/><path d="M67.16,214.85v-32.8H83.4v2.8H70.14v10.26H83.4v2.8H70.14v14.14H83.4v2.8Z"/><path d="M139.45,188.05a17.55,17.55,0,0,0-5-3.11,14.52,14.52,0,0,0-5.37-1,13.86,13.86,0,0,0-10.34,4,14.33,14.33,0,0,0-4,10.51,16.77,16.77,0,0,0,1,5.85,13,13,0,0,0,3,4.61,13.34,13.34,0,0,0,4.52,3,14.29,14.29,0,0,0,5.45,1,16.09,16.09,0,0,0,5.52-1,18.17,18.17,0,0,0,5.08-2.84v3.49a21.14,21.14,0,0,1-5.12,2.28,18.83,18.83,0,0,1-5.34.79,18.43,18.43,0,0,1-6.81-1.27,16.34,16.34,0,0,1-5.58-3.59,15.75,15.75,0,0,1-3.63-5.51,18.7,18.7,0,0,1-1.23-6.88,18.5,18.5,0,0,1,1.26-6.86,15.84,15.84,0,0,1,3.64-5.49,16.51,16.51,0,0,1,5.57-3.53,18.23,18.23,0,0,1,6.78-1.28,19,19,0,0,1,5.81.86,15.69,15.69,0,0,1,4.88,2.59Z"/><path d="M146,214.85l14.41-34.1,13.8,34.1H171l-4.19-11.11h-13.4L149,214.85Zm8.38-13.67h11.43l-5.6-14.27Z"/><path d="M182.48,214.85V180.66l23.24,27.45V182.05h2.77v33.76l-23.21-27.49v26.53Z"/><path d="M221.26,214.85V180.66l23.23,27.45V182.05h2.78v33.76l-23.21-27.49v26.53Z"/><path d="M255.56,214.85l14.4-34.1,13.8,34.1h-3.24l-4.2-11.11H262.93l-4.35,11.11Zm8.38-13.67h11.42l-5.6-14.27Z"/><path d="M292,214.85v-32.8h5.69a28.49,28.49,0,0,1,5.4.36,7.11,7.11,0,0,1,2.82,1.23,8.11,8.11,0,0,1,2.49,3,9.13,9.13,0,0,1,.85,3.94,7.25,7.25,0,0,1-1.37,4.45,6.37,6.37,0,0,1-3.76,2.42,7.86,7.86,0,0,1,5,2.54,7.68,7.68,0,0,1,1.79,5.22,11.31,11.31,0,0,1-.69,4.09,8.27,8.27,0,0,1-2.11,3.1,8.13,8.13,0,0,1-3.45,1.89,29.38,29.38,0,0,1-6.88.55Zm3-18.22h3.72q4.09,0,5.79-1.34c1.12-.9,1.69-2.39,1.69-4.48q0-3.39-1.65-4.77t-5.83-1.39H295Zm0,15.64h3.81a24.66,24.66,0,0,0,4.48-.27,5.14,5.14,0,0,0,2.08-.92,5.47,5.47,0,0,0,1.68-2.23,7.38,7.38,0,0,0,.63-3,8,8,0,0,0-.7-3.46,4.87,4.87,0,0,0-1.92-2.23,6.44,6.44,0,0,0-2-.71,22.1,22.1,0,0,0-3.59-.21H295Z"/><path d="M322,214.85v-32.8h3v32.8Z"/><path d="M335.24,209.34l2.55-1.37a7,7,0,0,0,2.48,3.75,6.78,6.78,0,0,0,4.22,1.34,6.35,6.35,0,0,0,4.86-1.84,7.07,7.07,0,0,0,1.75-5.09,6.36,6.36,0,0,0-1.18-3.94c-.78-1.05-2.47-2.26-5.05-3.63q-5-2.62-6.59-4.62a7.28,7.28,0,0,1-1.63-4.79,7.42,7.42,0,0,1,2.36-5.69,8.68,8.68,0,0,1,6.13-2.2,8.47,8.47,0,0,1,4.29,1.05,7.73,7.73,0,0,1,3,3.12l-2.31,1.39a5,5,0,0,0-2-2.15,6.24,6.24,0,0,0-3.1-.74,4.93,4.93,0,0,0-5.29,5.26q0,3.47,5.69,6.44c.69.35,1.21.63,1.57.82,2.8,1.54,4.66,3,5.6,4.36a9.21,9.21,0,0,1,1.42,5.32,8.91,8.91,0,0,1-9.59,9.59,9.39,9.39,0,0,1-5.53-1.6A10.4,10.4,0,0,1,335.24,209.34Z"/><path d="M383,214.85v-32.8h3v32.8Z"/><path d="M398.74,214.85V180.66L422,208.11V182.05h2.78v33.76l-23.21-27.49v26.53Z"/><path d="M443.34,214.85v-30h-9v-2.8h21.05v2.8h-9.05v30Z"/><path d="M464.91,214.85v-32.8h16.25v2.8H467.89v10.26h13.27v2.8H467.89v14.14h13.27v2.8Z"/><path d="M493.05,214.85v-32.8h3v30h11.25v2.8Z"/><path d="M516.59,214.85v-32.8h3v30h11.25v2.8Z"/><path d="M540.14,214.85v-32.8h3v32.8Z"/><path d="M582.77,190.29a13.6,13.6,0,0,0-4.91-4.68A13.46,13.46,0,0,0,571.3,184a12.93,12.93,0,0,0-9.93,4.12,16.38,16.38,0,0,0-2.81,16.22,13.77,13.77,0,0,0,3,4.62,13,13,0,0,0,4.41,3,14.13,14.13,0,0,0,5.36,1,12.61,12.61,0,0,0,9-3.25,11.4,11.4,0,0,0,3.55-8.49H572.51v-2.58h14.58V199q0,7.85-4.28,12.28T571,215.72A16.07,16.07,0,0,1,559,211c-3.08-3.16-4.61-7.32-4.61-12.45a19.28,19.28,0,0,1,1.16-6.69,16,16,0,0,1,3.36-5.48,15.64,15.64,0,0,1,5.37-3.79,17.15,17.15,0,0,1,6.66-1.25,18.78,18.78,0,0,1,8.56,1.8,12.6,12.6,0,0,1,5.49,5.3Z"/><path d="M598,214.85v-32.8H614.2v2.8H600.93v10.26H614.2v2.8H600.93v14.14H614.2v2.8Z"/><path d="M626.09,214.85V180.66l23.23,27.45V182.05h2.78v33.76l-23.21-27.49v26.53Z"/><path d="M691.22,188.05a17.69,17.69,0,0,0-5-3.11,14.57,14.57,0,0,0-5.38-1,13.88,13.88,0,0,0-10.34,4,14.33,14.33,0,0,0-4,10.51,16.54,16.54,0,0,0,1,5.85,13,13,0,0,0,3,4.61,13.3,13.3,0,0,0,4.51,3,14.38,14.38,0,0,0,5.46,1,16,16,0,0,0,5.51-1,18.22,18.22,0,0,0,5.09-2.84v3.49a21.31,21.31,0,0,1-5.12,2.28,18.84,18.84,0,0,1-5.35.79,18.5,18.5,0,0,1-6.81-1.27,16.53,16.53,0,0,1-5.58-3.59,16,16,0,0,1-3.63-5.51,18.7,18.7,0,0,1-1.23-6.88,18.31,18.31,0,0,1,1.27-6.86,15.56,15.56,0,0,1,3.64-5.49,16.42,16.42,0,0,1,5.57-3.53,18.22,18.22,0,0,1,6.77-1.28,19,19,0,0,1,5.82.86,15.64,15.64,0,0,1,4.87,2.59Z"/><path d="M702.26,214.85v-32.8H718.5v2.8H705.24v10.26H718.5v2.8H705.24v14.14H718.5v2.8Z"/></svg>